# xmcd CD database file
#
# Track frame offsets:
#	150
#	23847
#	46695
#
# Disc length: 935 seconds
#
# Revision: 2
# Processed by: cddbd v1.5PL3 Copyright (c) Steve Scherf et al.
# Submitted via: CDex 1.51
#
DISCID=1703a503
DTITLE=エルドラド - THE ALFEE
DYEAR=1994
DGENRE=JPop
TTITLE0=エルドラド
TTITLE1=The Adventure Begins (English Version)
TTITLE2=エルドラド(オリジナル・カラオケ)
EXTD=YEAR: 1994
EXTT0=
EXTT1=
EXTT2=
PLAYORDER=
